# xmcd
# 
# Track frame offsets:
#     150
#     17490
#     34987
#     51510
#     65555
#     82007
#     97437
#     113535
#     132850
#     146867
#     160855
# 
# Disc length: 2361
# 
# Revision: 2
# Processed by: cddbd v1.5.2PL0 Copyright (c) Steve Scherf et al.
# Submitted via: fre:ac v1.0.31
# 
DISCID=9f09370b
DTITLE=Jimmy Webb - El Mirage
DYEAR=1977
DGENRE=AOR/MOR
TTITLE0=The Highwayman
TTITLE1=If You See Me Getting Smaller I'm Leaving
TTITLE2=Mixed-Up Guy
TTITLE3=Christiaan No
TTITLE4=Moment in a Shadow
TTITLE5=Sugarbird
TTITLE6=Where the Universes Are
TTITLE7=P.F. Sloan
TTITLE8=Dance to the Radio
TTITLE9=The Moon Is a Harsh Mistress
TTITLE10=Skylark (A Meditation)
EXTD=YEAR: 1977
EXTT0=
EXTT1=
EXTT2=
EXTT3=
EXTT4=
EXTT5=
EXTT6=
EXTT7=
EXTT8=
EXTT9=
EXTT10=
PLAYORDER=
